<svg xmlns="http://www.w3.org/2000/svg" viewBox="0 0 360 760" role="img" aria-label="虚拟教师">
  <defs>
    <linearGradient id="bg" x1="0" x2="1" y1="0" y2="1">
      <stop offset="0" stop-color="#aab7bd"/>
      <stop offset="1" stop-color="#7f8d94"/>
    </linearGradient>
    <linearGradient id="suit" x1="0" x2="1" y1="0" y2="1">
      <stop offset="0" stop-color="#eef1f7"/>
      <stop offset="1" stop-color="#c7cedd"/>
    </linearGradient>
    <linearGradient id="skin" x1="0" x2="0" y1="0" y2="1">
      <stop offset="0" stop-color="#fff2e8"/>
      <stop offset="1" stop-color="#e9c8ba"/>
    </linearGradient>
    <linearGradient id="hair" x1="0" x2="1" y1="0" y2="1">
      <stop offset="0" stop-color="#1f2930"/>
      <stop offset="1" stop-color="#56626c"/>
    </linearGradient>
    <filter id="shadow" x="-30%" y="-20%" width="160%" height="150%">
      <feDropShadow dx="0" dy="18" stdDeviation="18" flood-color="#31434c" flood-opacity=".24"/>
    </filter>
  </defs>
  <rect width="360" height="760" fill="url(#bg)"/>
  <ellipse cx="183" cy="724" rx="96" ry="20" fill="#5f7078" opacity=".28"/>
  <g filter="url(#shadow)">
    <path d="M145 223c-28 11-47 36-53 74l-24 168c-4 27 10 49 31 53 18 3 34-10 38-31l28-137 12 2-8 165-12 142c-2 28 13 49 35 51 22 2 39-16 42-45l15-135 15 135c3 29 20 47 42 45 22-2 37-23 35-51l-12-142-8-165 12-2 28 137c4 21 20 34 38 31 21-4 35-26 31-53l-24-168c-6-38-25-63-53-74-42-17-129-17-171 0Z" fill="url(#suit)"/>
    <path d="M153 242l38 24 29-1 38-23 12 35-37 40-28 2-63-42Z" fill="#f8fbff"/>
    <path d="M190 264h31l-3 96c-1 19-10 31-24 31s-23-12-24-31l-3-96Z" fill="#d7eef0"/>
    <path d="M151 121c-5-49 32-85 80-70 36 11 53 43 43 89l-12 65c-9 51-28 77-73 72-39-4-59-31-55-74Z" fill="url(#hair)"/>
    <path d="M128 157c8-46 38-72 74-68 38 4 61 35 60 82-1 54-27 96-66 96-41 0-78-55-68-110Z" fill="url(#skin)"/>
    <path d="M141 150c39 2 76-11 104-38 17 24 23 47 20 72 15-48-12-94-63-100-45-5-81 22-89 71 9-4 18-5 28-5Z" fill="url(#hair)"/>
    <path d="M151 185c-10 0-18-10-17-22 1-11 9-18 18-14" fill="url(#skin)"/>
    <path d="M258 185c10 0 18-10 17-22-1-11-9-18-18-14" fill="url(#skin)"/>
    <circle cx="176" cy="183" r="5" fill="#26343a"/>
    <circle cx="228" cy="183" r="5" fill="#26343a"/>
    <path d="M183 226c10 11 31 11 42 0" fill="none" stroke="#d9797c" stroke-width="5" stroke-linecap="round"/>
    <path d="M198 185l-8 25h19" fill="none" stroke="#d8aa9c" stroke-width="4" stroke-linecap="round" stroke-linejoin="round"/>
    <path d="M160 166c12-8 25-9 38-2" fill="none" stroke="#38464d" stroke-width="5" stroke-linecap="round"/>
    <path d="M211 164c13-7 27-5 39 4" fill="none" stroke="#38464d" stroke-width="5" stroke-linecap="round"/>
    <path d="M135 337c26 20 53 31 80 32 28-1 54-12 80-32" fill="none" stroke="#aeb7c6" stroke-width="5" opacity=".55"/>
    <circle cx="215" cy="306" r="5" fill="#a8b3c2"/>
    <circle cx="214" cy="344" r="5" fill="#a8b3c2"/>
    <path d="M168 516h68" stroke="#a9b3c2" stroke-width="6" stroke-linecap="round" opacity=".58"/>
    <path d="M158 704h79" stroke="#f8fbff" stroke-width="20" stroke-linecap="round"/>
    <path d="M257 704h79" stroke="#f8fbff" stroke-width="20" stroke-linecap="round"/>
  </g>
</svg>
